<?xml version="1.0" standalone="no"?>
<!DOCTYPE svg PUBLIC "-//W3C//DTD SVG 20010904//EN"
 "http://www.w3.org/TR/2001/REC-SVG-20010904/DTD/svg10.dtd">
<svg version="1.0" xmlns="http://www.w3.org/2000/svg"
 width="512.000000pt" height="512.000000pt" viewBox="0 0 512.000000 512.000000"
 preserveAspectRatio="xMidYMid meet">

<g transform="translate(0.000000,512.000000) scale(0.100000,-0.100000)"
fill="#000000" stroke="none">
<path d="M3673 4196 l-28 -24 -3 -1201 -2 -1201 -85 0 -85 0 0 910 0 911 -25
24 -24 25 -361 0 -361 0 -24 -25 -25 -24 0 -911 0 -910 -90 0 -90 0 0 783 0
784 -23 21 c-23 22 -27 22 -386 22 l-362 0 -24 -25 -25 -24 0 -781 0 -780 -85
0 -85 0 -2 640 -3 639 -23 23 -23 23 -364 0 -364 0 -23 -23 -23 -23 -3 -638
-2 -639 -141 -4 c-140 -3 -141 -3 -165 -31 -29 -34 -31 -66 -3 -101 l20 -26
2199 0 2199 0 20 26 c28 35 26 67 -3 101 -24 28 -25 28 -165 31 l-141 4 0
1195 0 1195 -29 29 -29 29 -356 0 -355 0 -28 -24z m637 -1281 l0 -1145 -255 0
-255 0 0 1138 c0 626 3 1142 7 1145 3 4 118 7 255 7 l248 0 0 -1145z m-1000
-290 l0 -855 -250 0 -250 0 0 855 0 855 250 0 250 0 0 -855z m-1000 -130 l0
-725 -250 0 -250 0 0 725 0 725 250 0 250 0 0 -725z m-992 -142 l2 -583 -255
0 -255 0 0 578 c0 318 3 582 7 586 4 3 117 5 252 4 l246 -3 3 -582z"/>
<path d="M4475 1500 c-43 -17 -54 -42 -57 -130 l-3 -85 -85 -3 c-97 -3 -130
-22 -130 -74 0 -66 39 -88 151 -88 l69 0 0 -82 c1 -86 8 -106 47 -126 34 -18
52 -14 84 17 27 28 29 34 29 109 l0 80 86 3 c79 4 87 6 110 32 29 34 31 66 3
101 -19 25 -25 26 -110 26 l-89 0 0 84 c0 74 -3 88 -22 110 -27 29 -55 38 -83
26z"/>
<path d="M341 1254 c-28 -35 -26 -67 3 -101 l24 -28 223 -3 c244 -4 281 0 310
29 27 27 25 80 -4 107 -23 21 -30 22 -279 22 l-257 0 -20 -26z"/>
</g>
</svg>
